<?xml version="1.0" standalone="no"?>
<!DOCTYPE svg PUBLIC "-//W3C//DTD SVG 20010904//EN"
 "http://www.w3.org/TR/2001/REC-SVG-20010904/DTD/svg10.dtd">
<svg version="1.0" xmlns="http://www.w3.org/2000/svg"
 width="1920.000000pt" height="1080.000000pt" viewBox="0 0 1920.000000 1080.000000"
 preserveAspectRatio="xMidYMid meet">
<metadata>
Created by potrace 1.15, written by Peter Selinger 2001-2017
</metadata>
<g transform="translate(0.000000,1080.000000) scale(0.100000,-0.100000)"
fill="#000000" stroke="none">
<path d="M254 10697 c-2 -8 -4 -52 -2 -98 l3 -84 53 -3 52 -3 0 34 c0 22 -6
37 -15 41 -8 3 -15 10 -15 16 0 5 7 10 15 10 9 0 15 9 15 25 0 14 8 29 19 35
29 15 41 12 41 -10 0 -11 -7 -20 -15 -20 -8 0 -15 -7 -15 -15 0 -8 7 -15 15
-15 8 0 15 -7 15 -15 0 -8 -7 -15 -15 -15 -11 0 -15 -11 -15 -36 0 -33 2 -35
28 -32 l27 3 0 95 0 95 -93 3 c-71 2 -94 0 -98 -11z"/>
<path d="M7490 10610 l0 -100 100 0 100 0 0 100 0 100 -100 0 -100 0 0 -100z"/>
<path d="M16944 10686 c-3 -7 -4 -33 -2 -57 3 -41 5 -44 33 -45 43 -1 55 5 54
30 0 21 0 21 -11 -1 -6 -13 -14 -23 -18 -23 -4 0 -12 10 -18 23 l-11 22 0 -22
c-2 -47 -21 -21 -21 27 0 57 16 66 33 20 6 -16 14 -30 18 -30 4 0 12 14 18 30
17 50 33 37 29 -23 -3 -53 -3 -54 25 -52 15 1 27 -2 27 -7 0 -11 37 -10 45 1
3 5 -5 11 -17 13 -18 2 -23 9 -23 33 0 27 4 30 33 33 31 3 32 2 32 -36 l0 -39
93 1 92 1 3 49 c4 56 -12 81 -32 53 -8 -11 -29 -18 -56 -20 -32 -2 -45 -8 -50
-22 -6 -18 -7 -18 -12 3 -5 19 -12 21 -62 19 -31 -2 -56 -1 -56 2 0 4 -12 12
-27 18 -29 14 -53 3 -53 -26 -1 -11 -7 -8 -21 12 -23 30 -37 34 -45 13z"/>
<path d="M18283 10685 c-7 -8 -13 -37 -13 -65 l0 -50 51 0 c30 0 56 6 65 14 8
9 14 35 14 65 l0 51 -52 0 c-33 -1 -58 -6 -65 -15z"/>
<path d="M18110 10287 c-52 -27 -62 -104 -19 -143 30 -27 93 -25 121 4 30 29
31 94 3 122 -26 26 -74 34 -105 17z"/>
<path d="M1343 10278 c-55 -27 -50 -114 8 -138 89 -37 151 99 63 139 -30 13
-42 13 -71 -1z"/>
<path d="M4584 9897 c-2 -8 -4 -52 -2 -98 l3 -84 53 -3 52 -3 0 34 c0 22 -6
37 -15 41 -8 3 -15 10 -15 16 0 5 7 10 15 10 9 0 15 9 15 25 0 14 8 29 19 35
29 15 41 12 41 -10 0 -11 -7 -20 -15 -20 -8 0 -15 -7 -15 -15 0 -8 7 -15 15
-15 8 0 15 -7 15 -15 0 -8 -7 -15 -15 -15 -11 0 -15 -11 -15 -36 0 -33 2 -35
28 -32 l27 3 0 95 0 95 -93 3 c-71 2 -94 0 -98 -11z"/>
<path d="M11528 9877 c-42 -28 -48 -36 -48 -67 0 -31 6 -39 50 -68 l50 -32 50
32 c44 29 50 37 50 68 0 31 -6 39 -50 68 -27 17 -51 32 -52 31 -2 0 -24 -15
-50 -32z"/>
<path d="M15608 9877 c-42 -28 -48 -36 -48 -67 0 -31 6 -39 50 -68 l50 -32 50
32 c44 29 50 37 50 68 0 31 -6 39 -50 68 -27 17 -51 32 -52 31 -2 0 -24 -15
-50 -32z"/>
<path d="M1844 9887 c-3 -8 -4 -47 -2 -88 l3 -74 55 0 55 0 3 61 c3 58 1 63
-28 88 -34 28 -77 34 -86 13z"/>
<path d="M13384 9887 c-3 -8 -4 -47 -2 -88 l3 -74 55 0 55 0 3 61 c3 58 1 63
-28 88 -34 28 -77 34 -86 13z"/>
<path d="M7203 9880 c-32 -13 -56 -75 -40 -103 26 -45 39 -52 114 -55 l73 -4
0 51 0 52 -52 -3 c-58 -3 -68 -20 -16 -28 25 -4 33 -10 33 -25 0 -16 -8 -21
-44 -23 -74 -5 -116 53 -71 98 16 16 33 20 85 20 51 0 65 3 65 15 0 12 -13 15
-62 14 -35 0 -73 -4 -85 -9z"/>
<path d="M12660 9822 c0 -56 3 -69 20 -80 16 -10 20 -10 20 0 0 10 3 9 9 -1 7
-11 9 -11 14 0 4 10 6 10 6 2 1 -7 8 -13 16 -13 8 0 15 6 15 13 0 8 4 7 10 -3
9 -13 11 -13 20 0 6 10 10 11 10 3 0 -7 3 -13 8 -13 4 0 6 36 4 80 l-4 80 -74
0 -74 0 0 -68z"/>
<path d="M6840 9872 c-23 -7 -25 -13 -25 -62 l0 -55 43 -9 c24 -5 60 -5 85 0
42 9 42 9 45 58 2 27 -1 53 -6 58 -12 12 -111 19 -142 10z"/>
<path d="M18340 9363 c0 -27 -2 -28 -46 -25 -38 4 -46 1 -50 -15 -3 -10 -20
-23 -39 -29 -28 -9 -36 -8 -49 8 -15 17 -14 19 9 28 14 5 25 16 25 25 0 18 -2
18 -35 3 -17 -8 -25 -19 -24 -32 1 -12 -1 -29 -6 -39 -4 -9 -5 -29 -3 -42 3
-14 1 -25 -3 -25 -16 0 -9 -37 12 -64 11 -14 24 -26 29 -26 15 0 21 68 8 89
-9 15 -9 23 1 35 11 13 25 15 67 10 36 -5 59 -3 68 6 24 19 33 5 46 -82 11
-71 11 -83 -2 -92 -12 -7 -13 -17 -5 -55 6 -31 6 -55 -1 -76 -13 -33 -5 -106
25 -237 17 -75 18 -77 43 -71 74 18 173 95 215 167 40 70 39 76 -11 131 -25
28 -54 67 -65 88 l-19 37 -66 0 -65 0 7 144 c4 81 3 145 -2 148 -5 3 -21 8
-36 12 -25 6 -28 4 -28 -21z"/>
<path d="M1071 9208 c-61 -51 -111 -98 -111 -105 0 -31 28 -18 120 59 56 46
104 84 108 85 4 2 52 -36 107 -82 55 -47 104 -85 108 -85 4 0 10 7 14 16 4 11
-4 25 -25 43 -29 24 -32 32 -34 91 l-3 65 -32 3 c-32 3 -33 2 -33 -32 0 -20
-3 -36 -6 -36 -3 0 -24 16 -47 35 -22 19 -44 35 -48 35 -4 0 -57 -41 -118 -92z"/>
<path d="M1102 9147 l-83 -70 3 -76 3 -76 63 -3 62 -3 0 61 0 60 40 0 40 0 0
-60 0 -61 63 3 62 3 3 76 3 77 -78 64 c-43 35 -82 67 -88 70 -5 3 -47 -26 -93
-65z"/>
<path d="M18103 8851 c-13 -11 -23 -29 -23 -40 0 -13 -10 -26 -25 -33 -24 -11
-24 -12 -8 -31 24 -26 70 -58 87 -61 8 -1 20 -7 27 -13 8 -6 29 -14 46 -18 25
-5 32 -3 29 7 -2 7 -12 52 -21 100 -15 72 -21 87 -39 91 -11 2 -28 7 -36 10
-8 4 -25 -2 -37 -12z"/>
<path d="M3010 7100 l0 -180 30 0 30 0 0 180 0 180 -30 0 -30 0 0 -180z"/>
<path d="M6910 7100 l0 -180 30 0 30 0 0 85 c0 72 3 88 20 105 24 24 29 24 58
4 20 -14 22 -23 22 -105 l0 -89 31 0 31 0 -4 111 c-3 102 -5 112 -27 130 -28
23 -79 25 -109 3 l-22 -15 0 65 0 66 -30 0 -30 0 0 -180z"/>
<path d="M2497 7250 c-58 -46 -40 -133 36 -171 77 -39 99 -76 58 -99 -24 -12
-69 2 -77 25 -5 13 -9 13 -35 -1 -28 -14 -28 -16 -14 -38 20 -31 57 -46 109
-46 84 0 133 88 88 157 -4 6 -34 27 -67 45 -63 35 -79 63 -50 84 18 13 40 9
65 -12 18 -15 60 -8 60 11 0 7 -12 24 -26 39 -35 34 -108 37 -147 6z"/>
<path d="M290 7150 l0 -80 65 0 65 0 0 50 c0 47 -2 50 -25 50 -21 0 -25 5 -25
30 0 28 -2 30 -40 30 l-40 0 0 -80z"/>
<path d="M3660 7205 c0 -16 -6 -25 -15 -25 -10 0 -15 -10 -15 -30 0 -19 5 -30
14 -30 10 0 15 -20 17 -79 5 -96 22 -121 81 -121 34 0 38 3 38 25 0 18 -7 26
-24 31 -27 7 -36 29 -36 97 0 44 2 47 25 47 21 0 25 5 25 30 0 25 -4 30 -25
30 -20 0 -25 5 -25 25 0 21 -5 25 -30 25 -25 0 -30 -4 -30 -25z"/>
<path d="M5780 7205 c0 -16 -6 -25 -15 -25 -10 0 -15 -10 -15 -30 0 -19 5 -30
14 -30 10 0 15 -20 17 -79 5 -96 22 -121 81 -121 34 0 38 3 38 25 0 18 -7 26
-24 31 -27 7 -36 29 -36 97 0 44 2 47 25 47 21 0 25 5 25 30 0 25 -4 30 -25
30 -20 0 -25 5 -25 25 0 21 -5 25 -30 25 -25 0 -30 -4 -30 -25z"/>
<path d="M6070 7205 c0 -16 -6 -25 -15 -25 -10 0 -15 -10 -15 -30 0 -19 5 -30
14 -30 10 0 15 -20 17 -79 5 -96 22 -121 81 -121 34 0 38 3 38 25 0 18 -7 26
-24 31 -27 7 -36 29 -36 97 0 44 2 47 25 47 21 0 25 5 25 30 0 25 -4 30 -25
30 -20 0 -25 5 -25 25 0 21 -5 25 -30 25 -25 0 -30 -4 -30 -25z"/>
<path d="M2761 7154 c-65 -54 -61 -165 8 -211 48 -33 120 -32 158 2 27 24 27
26 10 39 -16 12 -23 12 -52 0 -46 -19 -104 3 -105 39 0 4 41 7 91 7 l92 0 -6
47 c-7 67 -48 103 -116 103 -39 0 -56 -6 -80 -26z"/>
<path d="M3168 7157 c-35 -30 -48 -58 -48 -107 0 -83 49 -130 134 -130 33 0
52 6 73 24 25 23 27 26 12 41 -14 14 -19 14 -52 0 -20 -8 -44 -12 -54 -8 -23
8 -53 33 -53 45 0 4 43 8 96 8 l96 0 -7 33 c-12 58 -16 66 -46 92 -41 34 -112
35 -151 2z"/>
<path d="M3456 7161 c-39 -26 -55 -57 -56 -109 0 -84 48 -132 133 -132 54 0
79 17 71 47 -5 19 -11 22 -33 17 -28 -7 -27 -7 -53 -5 -28 2 -58 38 -58 70 0
58 45 86 111 67 22 -6 27 -4 32 16 5 15 1 27 -10 36 -26 19 -104 15 -137 -7z"/>
<path d="M3940 7005 l0 -175 35 0 35 0 0 56 c0 50 2 55 18 48 38 -17 100 -16
127 2 74 48 70 190 -6 229 -34 18 -92 19 -122 4 -16 -9 -22 -9 -25 0 -2 6 -17
11 -33 11 l-29 0 0 -175z m199 74 c26 -76 -53 -134 -111 -82 -37 33 -17 109
32 125 28 9 68 -13 79 -43z"/>
<path d="M4290 7169 c-33 -13 -33 -14 -21 -37 9 -17 16 -19 47 -12 43 10 84
-3 84 -25 0 -12 -8 -14 -38 -9 -97 15 -158 -82 -90 -145 18 -17 34 -20 104
-19 l84 1 0 108 c0 104 -1 108 -26 128 -29 23 -99 28 -144 10z"/>
<path d="M4505 7159 c4 -12 26 -69 49 -128 l42 -106 -18 -48 -18 -48 31 3 c31
3 33 6 89 154 81 213 78 196 38 192 -32 -3 -34 -6 -61 -82 -15 -44 -29 -82
-31 -84 -3 -2 -17 35 -32 82 -28 85 -28 86 -62 86 -29 0 -33 -2 -27 -21z"/>
<path d="M4790 7050 l0 -130 30 0 30 0 0 85 c0 71 3 88 20 105 15 15 25 17 42
11 21 -8 23 -15 26 -105 l3 -96 34 0 35 0 0 95 c0 84 2 95 20 105 14 8 26 8
40 0 18 -10 20 -21 20 -105 l0 -95 36 0 36 0 -4 111 c-3 102 -5 112 -27 130
-28 22 -89 25 -116 5 -17 -12 -22 -12 -39 0 -25 17 -70 18 -99 3 -16 -9 -22
-9 -25 0 -2 6 -17 11 -33 11 l-29 0 0 -130z"/>
<path d="M5242 7146 c-35 -33 -37 -38 -37 -96 0 -58 2 -63 37 -96 33 -29 45
-34 89 -34 49 0 109 27 109 50 0 21 -38 30 -66 15 -41 -21 -104 -2 -104 31 0
11 20 14 90 14 90 0 90 0 90 25 0 38 -25 90 -51 109 -14 9 -43 16 -71 16 -41
0 -54 -5 -86 -34z"/>
<path d="M5490 7050 l0 -130 35 0 34 0 3 91 c3 79 6 93 23 104 13 9 28 10 43
4 21 -8 22 -14 22 -104 l0 -95 35 0 35 0 0 83 c0 96 -14 153 -40 167 -26 14
-83 13 -99 -2 -11 -10 -14 -10 -18 0 -3 6 -20 12 -39 12 l-34 0 0 -130z"/>
<path d="M6263 7147 c-32 -30 -37 -41 -41 -90 -4 -55 -3 -58 36 -97 36 -36 44
-40 91 -40 93 0 141 45 141 130 0 81 -52 130 -139 130 -44 0 -56 -5 -88 -33z
m150 -49 c19 -23 22 -60 6 -89 -26 -49 -107 -42 -129 12 -33 78 67 141 123 77z"/>
<path d="M6693 7147 c-32 -30 -37 -41 -41 -90 -4 -55 -3 -58 36 -97 35 -35 45
-40 86 -40 72 0 100 22 78 58 -7 9 -15 10 -35 3 -63 -24 -123 36 -97 98 15 36
59 55 97 40 20 -7 28 -6 35 3 22 36 -6 58 -76 58 -38 0 -53 -6 -83 -33z"/>
<path d="M7220 7169 c-33 -13 -33 -14 -21 -37 9 -17 16 -19 47 -12 43 10 84
-3 84 -25 0 -12 -8 -14 -38 -9 -97 15 -158 -82 -90 -145 18 -17 34 -20 104
-19 l84 1 0 108 c0 104 -1 108 -26 128 -29 23 -99 28 -144 10z"/>
<path d="M7450 7050 l0 -130 30 0 30 0 0 83 c0 84 8 108 41 120 9 3 26 -1 38
-9 19 -14 21 -25 21 -105 l0 -89 30 0 30 0 0 104 c0 89 -3 107 -21 130 -24 31
-81 36 -117 10 -20 -14 -22 -14 -22 0 0 11 -10 16 -30 16 l-30 0 0 -130z"/>
<path d="M7760 7153 c-86 -77 -38 -233 71 -233 22 0 49 5 61 11 29 15 33 4 8
-21 -19 -19 -30 -22 -77 -18 -44 4 -56 2 -64 -13 -13 -25 -13 -26 27 -39 43
-14 114 -7 148 15 38 25 46 58 46 195 l0 130 -29 0 c-16 0 -31 -5 -33 -11 -3
-9 -9 -9 -25 0 -40 21 -100 14 -133 -16z m140 -49 c20 -20 19 -89 -2 -111 -25
-24 -77 -21 -100 6 -59 74 34 169 102 105z"/>
<path d="M8071 7154 c-65 -54 -61 -165 8 -211 48 -33 120 -32 158 2 27 24 27
26 10 39 -16 12 -23 12 -52 0 -46 -19 -104 3 -105 39 0 4 41 7 91 7 l92 0 -6
47 c-7 67 -48 103 -116 103 -39 0 -56 -6 -80 -26z"/>
<path d="M297 6773 c-4 -3 -7 -35 -7 -70 l0 -63 85 0 85 0 0 64 c0 49 -4 65
-16 70 -21 8 -139 8 -147 -1z"/>
<path d="M290 6270 l0 -80 65 0 65 0 0 50 c0 47 -2 50 -25 50 -21 0 -25 5 -25
30 0 28 -2 30 -40 30 l-40 0 0 -80z"/>
<path d="M2640 6050 c-47 -47 -4 -128 64 -117 26 4 38 1 51 -14 10 -10 22 -16
27 -13 5 3 1 15 -8 25 -12 14 -17 33 -15 61 1 27 -4 47 -15 59 -23 25 -78 25
-104 -1z"/>
<path d="M16996 4554 c-12 -12 -16 -37 -16 -109 0 -72 4 -97 16 -109 14 -14
100 -16 799 -16 699 0 785 2 799 16 12 12 16 37 16 109 0 72 -4 97 -16 109
-14 14 -100 16 -799 16 -699 0 -785 -2 -799 -16z m264 -44 c0 -15 7 -20 24
-20 17 0 27 -7 32 -22 l7 -23 8 23 c11 29 62 31 82 2 l14 -21 6 21 c4 14 13
20 34 20 36 0 53 -16 53 -50 0 -34 -17 -50 -53 -50 -21 0 -30 6 -34 20 l-6 21
-14 -21 c-20 -29 -71 -27 -83 3 l-9 22 0 -22 c-2 -43 -30 -26 -33 20 -2 23 -7
42 -13 42 -5 0 -11 -19 -13 -42 -2 -29 -8 -43 -18 -43 -11 0 -14 16 -14 70 0
56 3 70 15 70 8 0 15 -9 15 -20z m820 -42 l9 -23 0 23 c1 19 6 22 41 22 35 0
42 -4 51 -27 14 -38 -3 -73 -36 -73 -18 0 -25 -5 -25 -20 0 -11 -7 -20 -15
-20 -11 0 -15 12 -16 43 0 35 -2 38 -9 20 -7 -16 -18 -23 -38 -23 -35 0 -52
16 -52 50 0 34 17 50 52 50 20 0 31 -7 38 -22z"/>
<path d="M18570 2825 l0 -95 -225 0 c-193 0 -225 -2 -225 -15 0 -8 -7 -15 -15
-15 -8 0 -15 7 -15 15 0 13 -68 15 -555 15 -528 0 -555 -1 -555 -18 0 -43 -11
-42 811 -42 703 0 789 2 803 16 12 12 16 37 16 109 0 72 -4 97 -16 109 -8 9
-17 16 -20 16 -2 0 -4 -43 -4 -95z"/>
<path d="M16996 2494 c-12 -12 -16 -37 -16 -109 0 -72 4 -97 16 -109 14 -14
100 -16 799 -16 699 0 785 2 799 16 12 12 16 37 16 109 0 72 -4 97 -16 109
-14 14 -100 16 -799 16 -699 0 -785 -2 -799 -16z m264 -44 c0 -15 7 -20 24
-20 17 0 27 -7 32 -22 l7 -23 8 23 c11 29 62 31 82 2 l14 -21 6 21 c4 14 13
20 34 20 36 0 53 -16 53 -50 0 -34 -17 -50 -53 -50 -21 0 -30 6 -34 20 l-6 21
-14 -21 c-20 -29 -71 -27 -83 3 l-9 22 0 -22 c-2 -43 -30 -26 -33 20 -2 23 -7
42 -13 42 -5 0 -11 -19 -13 -42 -2 -29 -8 -43 -18 -43 -11 0 -14 16 -14 70 0
56 3 70 15 70 8 0 15 -9 15 -20z m820 -42 l9 -23 0 23 c1 19 6 22 41 22 35 0
42 -4 51 -27 14 -38 -3 -73 -36 -73 -18 0 -25 -5 -25 -20 0 -11 -7 -20 -15
-20 -11 0 -15 12 -16 43 0 35 -2 38 -9 20 -7 -16 -18 -23 -38 -23 -35 0 -52
16 -52 50 0 34 17 50 52 50 20 0 31 -7 38 -22z"/>
<path d="M16996 2084 c-12 -12 -16 -37 -16 -109 0 -72 4 -97 16 -109 14 -14
100 -16 799 -16 699 0 785 2 799 16 12 12 16 37 16 109 0 72 -4 97 -16 109
-14 14 -100 16 -799 16 -699 0 -785 -2 -799 -16z m264 -44 c0 -15 7 -20 24
-20 17 0 27 -7 32 -22 l7 -23 8 23 c11 29 62 31 82 2 l14 -21 6 21 c4 14 13
20 34 20 36 0 53 -16 53 -50 0 -34 -17 -50 -53 -50 -21 0 -30 6 -34 20 l-6 21
-14 -21 c-20 -29 -71 -27 -83 3 l-9 22 0 -22 c-2 -43 -30 -26 -33 20 -2 23 -7
42 -13 42 -5 0 -11 -19 -13 -42 -2 -29 -8 -43 -18 -43 -11 0 -14 16 -14 70 0
56 3 70 15 70 8 0 15 -9 15 -20z m820 -42 l9 -23 0 23 c1 19 6 22 41 22 35 0
42 -4 51 -27 14 -38 -3 -73 -36 -73 -18 0 -25 -5 -25 -20 0 -11 -7 -20 -15
-20 -11 0 -15 12 -16 43 0 35 -2 38 -9 20 -7 -16 -18 -23 -38 -23 -35 0 -52
16 -52 50 0 34 17 50 52 50 20 0 31 -7 38 -22z"/>
<path d="M16996 1674 c-12 -12 -16 -37 -16 -109 0 -72 4 -97 16 -109 14 -14
100 -16 799 -16 699 0 785 2 799 16 12 12 16 37 16 109 0 72 -4 97 -16 109
-14 14 -100 16 -799 16 -699 0 -785 -2 -799 -16z m264 -44 c0 -15 7 -20 24
-20 17 0 27 -7 32 -22 l7 -23 8 23 c11 29 62 31 82 2 l14 -21 6 21 c4 14 13
20 34 20 36 0 53 -16 53 -50 0 -34 -17 -50 -53 -50 -21 0 -30 6 -34 20 l-6 21
-14 -21 c-20 -29 -71 -27 -83 3 l-9 22 0 -22 c-2 -43 -30 -26 -33 20 -2 23 -7
42 -13 42 -5 0 -11 -19 -13 -42 -2 -29 -8 -43 -18 -43 -11 0 -14 16 -14 70 0
56 3 70 15 70 8 0 15 -9 15 -20z m820 -42 l9 -23 0 23 c1 19 6 22 41 22 35 0
42 -4 51 -27 14 -38 -3 -73 -36 -73 -18 0 -25 -5 -25 -20 0 -11 -7 -20 -15
-20 -11 0 -15 12 -16 43 0 35 -2 38 -9 20 -7 -16 -18 -23 -38 -23 -35 0 -52
16 -52 50 0 34 17 50 52 50 20 0 31 -7 38 -22z"/>
<path d="M16996 1264 c-12 -12 -16 -37 -16 -109 0 -72 4 -97 16 -109 14 -14
100 -16 799 -16 699 0 785 2 799 16 12 12 16 37 16 109 0 72 -4 97 -16 109
-14 14 -100 16 -799 16 -699 0 -785 -2 -799 -16z m264 -44 c0 -15 7 -20 24
-20 17 0 27 -7 32 -22 l7 -23 8 23 c11 29 62 31 82 2 l14 -21 6 21 c4 14 13
20 34 20 36 0 53 -16 53 -50 0 -34 -17 -50 -53 -50 -21 0 -30 6 -34 20 l-6 21
-14 -21 c-20 -29 -71 -27 -83 3 l-9 22 0 -22 c-2 -43 -30 -26 -33 20 -2 23 -7
42 -13 42 -5 0 -11 -19 -13 -42 -2 -29 -8 -43 -18 -43 -11 0 -14 16 -14 70 0
56 3 70 15 70 8 0 15 -9 15 -20z m820 -42 l9 -23 0 23 c1 19 6 22 41 22 35 0
42 -4 51 -27 14 -38 -3 -73 -36 -73 -18 0 -25 -5 -25 -20 0 -11 -7 -20 -15
-20 -11 0 -15 12 -16 43 0 35 -2 38 -9 20 -7 -16 -18 -23 -38 -23 -35 0 -52
16 -52 50 0 34 17 50 52 50 20 0 31 -7 38 -22z"/>
<path d="M16996 854 c-12 -11 -16 -35 -16 -85 l0 -69 73 0 72 0 -3 48 c-4 57
11 75 60 70 34 -3 56 -38 24 -38 -9 0 -16 5 -16 10 0 6 -9 10 -20 10 -17 0
-20 -7 -20 -45 0 -38 3 -45 20 -45 11 0 20 5 20 10 0 17 28 11 33 -7 3 -10 5
12 6 50 1 52 4 67 16 67 8 0 15 -9 15 -20 0 -15 7 -20 24 -20 17 0 27 -7 32
-22 l7 -23 8 23 c11 29 62 31 82 2 l14 -21 6 21 c4 14 13 20 35 20 38 0 56
-22 50 -60 -3 -16 -1 -30 4 -30 4 0 8 5 8 10 0 6 12 8 28 5 26 -6 26 -6 8 9
-11 9 -24 16 -29 16 -4 0 -7 10 -5 23 2 18 9 22 37 22 19 0 36 -6 39 -13 3 -9
-2 -10 -22 -2 -21 7 -26 6 -26 -5 0 -8 4 -15 9 -15 5 0 16 -3 25 -6 11 -4 19
2 26 21 8 22 15 26 42 23 25 -2 34 -8 36 -25 3 -20 -1 -23 -28 -23 -26 0 -29
-3 -22 -16 6 -11 26 -18 55 -21 41 -3 46 -1 49 19 2 17 11 24 31 26 26 3 34
12 21 25 -3 3 -17 2 -30 -3 -19 -7 -22 -6 -17 6 4 10 17 14 42 12 35 -3 36 -5
42 -48 l6 -45 1 48 2 48 43 -3 c42 -3 42 -3 45 -45 3 -40 5 -43 31 -43 25 0
27 3 23 30 -5 38 12 60 50 60 20 0 31 -6 38 -22 l9 -23 0 23 c1 19 6 22 41 22
35 0 42 -4 51 -26 5 -15 7 -35 4 -45 -4 -11 -2 -19 5 -19 7 0 11 16 10 43 -1
23 -1 48 -1 55 1 14 31 17 31 2 0 -5 11 -10 25 -10 23 0 25 -4 25 -45 0 -25 5
-45 10 -45 6 0 8 10 4 24 -9 37 12 66 46 66 34 0 55 -29 46 -66 -4 -14 -2 -24
4 -24 5 0 10 20 10 45 0 45 0 45 35 45 38 0 55 -20 55 -64 0 -25 2 -26 60 -26
l60 0 0 69 c0 50 -4 74 -16 85 -14 14 -100 16 -799 16 -699 0 -785 -2 -799
-16z"/>
<path d="M0 250 l0 -250 300 0 300 0 0 250 0 250 -300 0 -300 0 0 -250z"/>
<path d="M4900 250 l0 -250 345 0 c300 0 345 2 345 15 0 13 35 15 255 15 220
0 255 -2 255 -15 0 -12 13 -15 55 -15 42 0 55 3 55 15 0 13 35 15 255 15 220
0 255 -2 255 -15 0 -13 79 -15 650 -15 571 0 650 2 650 15 0 13 41 15 305 15
264 0 305 -2 305 -15 0 -10 10 -15 30 -15 20 0 30 5 30 15 0 13 35 15 255 15
220 0 255 -2 255 -15 0 -12 13 -15 55 -15 42 0 55 3 55 15 0 13 35 15 255 15
220 0 255 -2 255 -15 0 -12 13 -15 55 -15 42 0 55 3 55 15 0 13 35 15 255 15
220 0 255 -2 255 -15 0 -12 13 -15 55 -15 42 0 55 3 55 15 0 13 35 15 255 15
220 0 255 -2 255 -15 0 -13 456 -15 4040 -15 l4040 0 0 250 0 250 -7120 0
-7120 0 0 -250z m2295 64 c20 -43 19 -92 -4 -131 -25 -41 -51 -48 -98 -27
l-38 16 31 9 c17 5 37 16 44 24 16 19 16 68 1 73 -6 2 -18 17 -27 34 -14 27
-14 32 1 54 l16 24 29 -22 c16 -11 36 -36 45 -54z m3693 50 c12 -8 22 -21 22
-29 0 -14 -65 -75 -80 -75 -6 0 -10 -5 -10 -10 0 -7 6 -7 20 0 11 6 20 7 20 2
0 -6 -8 -13 -17 -16 -10 -4 -30 -13 -44 -21 -47 -26 -82 -29 -108 -7 -15 11
-21 24 -17 31 6 9 12 8 26 -4 14 -13 25 -14 51 -6 l34 9 -33 1 c-46 1 -72 17
-72 45 0 64 149 122 208 80z m-5063 -4 c3 -5 37 -10 76 -10 l69 0 0 -99 0 -98
-27 -5 c-43 -6 -218 -2 -231 6 -13 8 -17 197 -5 209 10 11 111 8 118 -3z m715
-25 c51 -26 70 -41 70 -55 0 -11 6 -20 13 -20 6 -1 -6 -7 -28 -15 -44 -16 -63
-37 -72 -77 l-5 -28 -104 0 -104 0 0 80 0 80 68 34 c37 19 73 35 80 36 7 0 44
-16 82 -35z m1224 9 l58 -7 -6 -76 c-4 -48 -12 -80 -21 -87 -8 -6 -15 -18 -15
-27 0 -30 -87 -39 -114 -11 -21 20 -21 21 11 37 l26 14 -31 5 c-17 2 -29 1
-27 -3 6 -8 -65 -20 -77 -13 -12 7 -10 104 2 104 6 0 10 7 10 15 0 8 7 15 15
15 9 0 21 12 27 26 11 23 16 25 48 20 19 -3 61 -8 94 -12z m11126 -38 c0 -26
5 -46 13 -49 6 -3 2 -6 -11 -6 -13 -1 -33 -6 -45 -13 -12 -6 -44 -11 -72 -11
-49 0 -49 0 -7 -4 36 -4 42 -7 36 -21 -4 -9 -9 -30 -12 -45 l-4 -28 -12 23
c-8 17 -22 24 -49 26 l-37 3 0 85 0 84 100 0 100 0 0 -44z m-9870 -29 c0 -61
-16 -82 -77 -103 -30 -11 -40 -10 -59 3 -20 13 -24 24 -24 68 0 84 1 85 86 85
l74 0 0 -53z m-578 30 c14 -21 9 -98 -8 -127 -21 -34 -63 -60 -99 -60 l-27 0
21 35 20 35 -23 -6 c-13 -3 -35 0 -48 7 -12 7 -34 12 -47 10 -13 -1 -28 3 -32
11 -10 16 -12 60 -2 83 5 14 11 10 29 -21 15 -25 24 -32 24 -21 0 10 11 29 24
42 20 20 34 23 92 24 43 0 71 -4 76 -12z m8071 -34 c3 -16 3 -40 0 -55 l-5
-28 -89 0 -89 0 0 55 0 55 89 0 89 0 5 -27z"/>
<path d="M19150 250 l0 -250 25 0 25 0 0 250 0 250 -25 0 -25 0 0 -250z"/>
<path d="M790 368 c-36 -19 -49 -32 -64 -70 -19 -48 -19 -48 0 -95 16 -40 27
-52 67 -72 44 -21 52 -23 89 -12 51 16 83 48 98 98 11 35 10 46 -8 87 -17 37
-30 51 -64 66 -55 25 -64 25 -118 -2z m130 -53 c35 -36 34 -95 -3 -132 -60
-61 -162 -19 -162 66 0 89 101 130 165 66z"/>
</g>
</svg>
